<mxfile host="app.diagrams.net" modified="2023-05-01T21:27:58.560Z" agent="Mozilla/5.0 (X11; Ubuntu; Linux x86_64; rv:109.0) Gecko/20100101 Firefox/112.0" etag="do8TNDzbqGoHU8foSDIq" version="21.2.3" type="device">
  <diagram id="4fGwaXgOGpTZt1HKUXrP" name="Page-1">
    <mxGraphModel dx="2157" dy="1740" grid="1" gridSize="10" guides="1" tooltips="1" connect="1" arrows="1" fold="1" page="1" pageScale="1" pageWidth="827" pageHeight="1169" math="0" shadow="0">
      <root>
        <mxCell id="0" />
        <mxCell id="1" parent="0" />
        <mxCell id="AQYm5tewG9qpZWJNlzCx-7" value="MainActivity" style="swimlane;fontStyle=1;align=center;verticalAlign=top;childLayout=stackLayout;horizontal=1;startSize=26;horizontalStack=0;resizeParent=1;resizeParentMax=0;resizeLast=0;collapsible=1;marginBottom=0;" parent="1" vertex="1">
          <mxGeometry x="550" y="70" width="200" height="160" as="geometry" />
        </mxCell>
        <mxCell id="AQYm5tewG9qpZWJNlzCx-8" value="+ user_id: EditText&#xa;+ user_password: EditText" style="text;strokeColor=none;fillColor=none;align=left;verticalAlign=top;spacingLeft=4;spacingRight=4;overflow=hidden;rotatable=0;points=[[0,0.5],[1,0.5]];portConstraint=eastwest;" parent="AQYm5tewG9qpZWJNlzCx-7" vertex="1">
          <mxGeometry y="26" width="200" height="44" as="geometry" />
        </mxCell>
        <mxCell id="AQYm5tewG9qpZWJNlzCx-9" value="" style="line;strokeWidth=1;fillColor=none;align=left;verticalAlign=middle;spacingTop=-1;spacingLeft=3;spacingRight=3;rotatable=0;labelPosition=right;points=[];portConstraint=eastwest;" parent="AQYm5tewG9qpZWJNlzCx-7" vertex="1">
          <mxGeometry y="70" width="200" height="8" as="geometry" />
        </mxCell>
        <mxCell id="AQYm5tewG9qpZWJNlzCx-10" value="# onCreate(Bundle): void&#xa;+ Main_menu(View): void&#xa;+ forgot_password(View): void&#xa;+ registration_page(View): void&#xa;+ validate_input(): boolean" style="text;strokeColor=none;fillColor=none;align=left;verticalAlign=top;spacingLeft=4;spacingRight=4;overflow=hidden;rotatable=0;points=[[0,0.5],[1,0.5]];portConstraint=eastwest;" parent="AQYm5tewG9qpZWJNlzCx-7" vertex="1">
          <mxGeometry y="78" width="200" height="82" as="geometry" />
        </mxCell>
        <mxCell id="AQYm5tewG9qpZWJNlzCx-11" value="forgot_password" style="swimlane;fontStyle=1;align=center;verticalAlign=top;childLayout=stackLayout;horizontal=1;startSize=26;horizontalStack=0;resizeParent=1;resizeParentMax=0;resizeLast=0;collapsible=1;marginBottom=0;" parent="1" vertex="1">
          <mxGeometry x="170" y="-310" width="290" height="240" as="geometry">
            <mxRectangle x="180" y="370" width="100" height="26" as="alternateBounds" />
          </mxGeometry>
        </mxCell>
        <mxCell id="AQYm5tewG9qpZWJNlzCx-12" value="+ string: String&#xa;+ email: EditText&#xa;+ user_number: EditText&#xa;+ new_password: EditText&#xa;+ cornfirm_new_password: EditText&#xa;+ role: TextView" style="text;strokeColor=none;fillColor=none;align=left;verticalAlign=top;spacingLeft=4;spacingRight=4;overflow=hidden;rotatable=0;points=[[0,0.5],[1,0.5]];portConstraint=eastwest;" parent="AQYm5tewG9qpZWJNlzCx-11" vertex="1">
          <mxGeometry y="26" width="290" height="94" as="geometry" />
        </mxCell>
        <mxCell id="AQYm5tewG9qpZWJNlzCx-13" value="" style="line;strokeWidth=1;fillColor=none;align=left;verticalAlign=middle;spacingTop=-1;spacingLeft=3;spacingRight=3;rotatable=0;labelPosition=right;points=[];portConstraint=eastwest;" parent="AQYm5tewG9qpZWJNlzCx-11" vertex="1">
          <mxGeometry y="120" width="290" height="8" as="geometry" />
        </mxCell>
        <mxCell id="AQYm5tewG9qpZWJNlzCx-14" value="# onCreate(Bundle): void&#xa;+ onItemSelected(AdapterView, View, int, long): void&#xa;+ onNothingSelected(AdapterView): void&#xa;+ reset_password(View): void&#xa;+ validate_password(): boolean&#xa;+ back_to_login(View): void&#xa;+ add_to_database(): void" style="text;strokeColor=none;fillColor=none;align=left;verticalAlign=top;spacingLeft=4;spacingRight=4;overflow=hidden;rotatable=0;points=[[0,0.5],[1,0.5]];portConstraint=eastwest;" parent="AQYm5tewG9qpZWJNlzCx-11" vertex="1">
          <mxGeometry y="128" width="290" height="112" as="geometry" />
        </mxCell>
        <mxCell id="AQYm5tewG9qpZWJNlzCx-19" value="main_menu_student" style="swimlane;fontStyle=1;align=center;verticalAlign=top;childLayout=stackLayout;horizontal=1;startSize=26;horizontalStack=0;resizeParent=1;resizeParentMax=0;resizeLast=0;collapsible=1;marginBottom=0;" parent="1" vertex="1">
          <mxGeometry x="90" y="122" width="230" height="250" as="geometry" />
        </mxCell>
        <mxCell id="AQYm5tewG9qpZWJNlzCx-20" value="+ userNumber: String&#xa;+ course_list:LinearLayout&#xa;+ navigationView:NavigationView&#xa;- drawLayout:DrawLayout&#xa;+navigationView:NavigationView&#xa;+display:TextView&#xa;&#xa;&#xa;&#xa;" style="text;strokeColor=none;fillColor=none;align=left;verticalAlign=top;spacingLeft=4;spacingRight=4;overflow=hidden;rotatable=0;points=[[0,0.5],[1,0.5]];portConstraint=eastwest;" parent="AQYm5tewG9qpZWJNlzCx-19" vertex="1">
          <mxGeometry y="26" width="230" height="124" as="geometry" />
        </mxCell>
        <mxCell id="AQYm5tewG9qpZWJNlzCx-21" value="" style="line;strokeWidth=1;fillColor=none;align=left;verticalAlign=middle;spacingTop=-1;spacingLeft=3;spacingRight=3;rotatable=0;labelPosition=right;points=[];portConstraint=eastwest;" parent="AQYm5tewG9qpZWJNlzCx-19" vertex="1">
          <mxGeometry y="150" width="230" height="8" as="geometry" />
        </mxCell>
        <mxCell id="AQYm5tewG9qpZWJNlzCx-22" value="# onCreate(Bundle): void&#xa;+ out(Context):void&#xa;+ onBackPressed():void&#xa;+ onNavigationItemSelected(MenuItem):void&#xa;+ go_to_courses(View):void&#xa;" style="text;strokeColor=none;fillColor=none;align=left;verticalAlign=top;spacingLeft=4;spacingRight=4;overflow=hidden;rotatable=0;points=[[0,0.5],[1,0.5]];portConstraint=eastwest;" parent="AQYm5tewG9qpZWJNlzCx-19" vertex="1">
          <mxGeometry y="158" width="230" height="92" as="geometry" />
        </mxCell>
        <mxCell id="AQYm5tewG9qpZWJNlzCx-23" value="DataBase" style="swimlane;fontStyle=0;childLayout=stackLayout;horizontal=1;startSize=26;fillColor=none;horizontalStack=0;resizeParent=1;resizeParentMax=0;resizeLast=0;collapsible=1;marginBottom=0;" parent="1" vertex="1">
          <mxGeometry x="414" y="611" width="390" height="338" as="geometry" />
        </mxCell>
        <mxCell id="AQYm5tewG9qpZWJNlzCx-25" value="+ exists(Context, String, String): void" style="text;strokeColor=none;fillColor=none;align=left;verticalAlign=top;spacingLeft=4;spacingRight=4;overflow=hidden;rotatable=0;points=[[0,0.5],[1,0.5]];portConstraint=eastwest;" parent="AQYm5tewG9qpZWJNlzCx-23" vertex="1">
          <mxGeometry y="26" width="390" height="26" as="geometry" />
        </mxCell>
        <mxCell id="AQYm5tewG9qpZWJNlzCx-24" value="+ save(Context, Map): void" style="text;strokeColor=none;fillColor=none;align=left;verticalAlign=top;spacingLeft=4;spacingRight=4;overflow=hidden;rotatable=0;points=[[0,0.5],[1,0.5]];portConstraint=eastwest;" parent="AQYm5tewG9qpZWJNlzCx-23" vertex="1">
          <mxGeometry y="52" width="390" height="26" as="geometry" />
        </mxCell>
        <mxCell id="AQYm5tewG9qpZWJNlzCx-26" value="+ change_password(Context, Map): void" style="text;strokeColor=none;fillColor=none;align=left;verticalAlign=top;spacingLeft=4;spacingRight=4;overflow=hidden;rotatable=0;points=[[0,0.5],[1,0.5]];portConstraint=eastwest;" parent="AQYm5tewG9qpZWJNlzCx-23" vertex="1">
          <mxGeometry y="78" width="390" height="26" as="geometry" />
        </mxCell>
        <mxCell id="GG0X5sF1_zBIrp_4voiA-1" value="+ teacher_courses(Context, Sting, LinearLayout): void" style="text;strokeColor=none;fillColor=none;align=left;verticalAlign=top;spacingLeft=4;spacingRight=4;overflow=hidden;rotatable=0;points=[[0,0.5],[1,0.5]];portConstraint=eastwest;whiteSpace=wrap;html=1;" vertex="1" parent="AQYm5tewG9qpZWJNlzCx-23">
          <mxGeometry y="104" width="390" height="26" as="geometry" />
        </mxCell>
        <mxCell id="GG0X5sF1_zBIrp_4voiA-3" value="+ get_all_courses(Context, String, LinearLayout): void" style="text;strokeColor=none;fillColor=none;align=left;verticalAlign=top;spacingLeft=4;spacingRight=4;overflow=hidden;rotatable=0;points=[[0,0.5],[1,0.5]];portConstraint=eastwest;whiteSpace=wrap;html=1;" vertex="1" parent="AQYm5tewG9qpZWJNlzCx-23">
          <mxGeometry y="130" width="390" height="26" as="geometry" />
        </mxCell>
        <mxCell id="GG0X5sF1_zBIrp_4voiA-7" value="+ student_courses(Context, String, LinearLayout): void" style="text;strokeColor=none;fillColor=none;align=left;verticalAlign=top;spacingLeft=4;spacingRight=4;overflow=hidden;rotatable=0;points=[[0,0.5],[1,0.5]];portConstraint=eastwest;whiteSpace=wrap;html=1;" vertex="1" parent="AQYm5tewG9qpZWJNlzCx-23">
          <mxGeometry y="156" width="390" height="26" as="geometry" />
        </mxCell>
        <mxCell id="GG0X5sF1_zBIrp_4voiA-4" value="+ back_to_menu(Context, String): void" style="text;strokeColor=none;fillColor=none;align=left;verticalAlign=top;spacingLeft=4;spacingRight=4;overflow=hidden;rotatable=0;points=[[0,0.5],[1,0.5]];portConstraint=eastwest;whiteSpace=wrap;html=1;" vertex="1" parent="AQYm5tewG9qpZWJNlzCx-23">
          <mxGeometry y="182" width="390" height="26" as="geometry" />
        </mxCell>
        <mxCell id="GG0X5sF1_zBIrp_4voiA-6" value="+ course(Context, String, String): void" style="text;strokeColor=none;fillColor=none;align=left;verticalAlign=top;spacingLeft=4;spacingRight=4;overflow=hidden;rotatable=0;points=[[0,0.5],[1,0.5]];portConstraint=eastwest;whiteSpace=wrap;html=1;" vertex="1" parent="AQYm5tewG9qpZWJNlzCx-23">
          <mxGeometry y="208" width="390" height="26" as="geometry" />
        </mxCell>
        <mxCell id="GG0X5sF1_zBIrp_4voiA-5" value="+ create_course(Context, Map): void" style="text;strokeColor=none;fillColor=none;align=left;verticalAlign=top;spacingLeft=4;spacingRight=4;overflow=hidden;rotatable=0;points=[[0,0.5],[1,0.5]];portConstraint=eastwest;whiteSpace=wrap;html=1;" vertex="1" parent="AQYm5tewG9qpZWJNlzCx-23">
          <mxGeometry y="234" width="390" height="26" as="geometry" />
        </mxCell>
        <mxCell id="GG0X5sF1_zBIrp_4voiA-2" value="+ enroll_on(Context, String, String, String): void" style="text;strokeColor=none;fillColor=none;align=left;verticalAlign=top;spacingLeft=4;spacingRight=4;overflow=hidden;rotatable=0;points=[[0,0.5],[1,0.5]];portConstraint=eastwest;whiteSpace=wrap;html=1;" vertex="1" parent="AQYm5tewG9qpZWJNlzCx-23">
          <mxGeometry y="260" width="390" height="26" as="geometry" />
        </mxCell>
        <mxCell id="GG0X5sF1_zBIrp_4voiA-9" value="+ profile(Context, String, TextView, TextView, TextView, TextView): void" style="text;strokeColor=none;fillColor=none;align=left;verticalAlign=top;spacingLeft=4;spacingRight=4;overflow=hidden;rotatable=0;points=[[0,0.5],[1,0.5]];portConstraint=eastwest;whiteSpace=wrap;html=1;" vertex="1" parent="AQYm5tewG9qpZWJNlzCx-23">
          <mxGeometry y="286" width="390" height="26" as="geometry" />
        </mxCell>
        <mxCell id="GG0X5sF1_zBIrp_4voiA-8" value="+ upload_image(Context, String, String): void" style="text;strokeColor=none;fillColor=none;align=left;verticalAlign=top;spacingLeft=4;spacingRight=4;overflow=hidden;rotatable=0;points=[[0,0.5],[1,0.5]];portConstraint=eastwest;whiteSpace=wrap;html=1;" vertex="1" parent="AQYm5tewG9qpZWJNlzCx-23">
          <mxGeometry y="312" width="390" height="26" as="geometry" />
        </mxCell>
        <mxCell id="AQYm5tewG9qpZWJNlzCx-27" value="register_page" style="swimlane;fontStyle=1;align=center;verticalAlign=top;childLayout=stackLayout;horizontal=1;startSize=26;horizontalStack=0;resizeParent=1;resizeParentMax=0;resizeLast=0;collapsible=1;marginBottom=0;" parent="1" vertex="1">
          <mxGeometry x="920" y="-190" width="290" height="260" as="geometry" />
        </mxCell>
        <mxCell id="AQYm5tewG9qpZWJNlzCx-28" value="+ user_number: EditText&#xa;+ user_name: EditText&#xa;+ user_last_name: EditText&#xa;+ create_password: EditText&#xa;+ confirm_password: EditText&#xa;+ string: String&#xa;+ role: TextView" style="text;strokeColor=none;fillColor=none;align=left;verticalAlign=top;spacingLeft=4;spacingRight=4;overflow=hidden;rotatable=0;points=[[0,0.5],[1,0.5]];portConstraint=eastwest;" parent="AQYm5tewG9qpZWJNlzCx-27" vertex="1">
          <mxGeometry y="26" width="290" height="104" as="geometry" />
        </mxCell>
        <mxCell id="AQYm5tewG9qpZWJNlzCx-29" value="" style="line;strokeWidth=1;fillColor=none;align=left;verticalAlign=middle;spacingTop=-1;spacingLeft=3;spacingRight=3;rotatable=0;labelPosition=right;points=[];portConstraint=eastwest;" parent="AQYm5tewG9qpZWJNlzCx-27" vertex="1">
          <mxGeometry y="130" width="290" height="8" as="geometry" />
        </mxCell>
        <mxCell id="AQYm5tewG9qpZWJNlzCx-30" value="# onCreate(Bundle): void&#xa;+ login(View): void&#xa;+ main_menu(View): void&#xa;+ onItemSelected(AdapterView, View, int, long): void&#xa;+ onNothingSelected(Adapter): void&#xa;+ filled_in(): boolean&#xa;+ add_to_database(): void&#xa;-  isEmailValid(): boolean" style="text;strokeColor=none;fillColor=none;align=left;verticalAlign=top;spacingLeft=4;spacingRight=4;overflow=hidden;rotatable=0;points=[[0,0.5],[1,0.5]];portConstraint=eastwest;" parent="AQYm5tewG9qpZWJNlzCx-27" vertex="1">
          <mxGeometry y="138" width="290" height="122" as="geometry" />
        </mxCell>
        <mxCell id="4iR9lyh61mGPYxzAgLXS-5" value="main_menu_teacher" style="swimlane;fontStyle=1;align=center;verticalAlign=top;childLayout=stackLayout;horizontal=1;startSize=26;horizontalStack=0;resizeParent=1;resizeParentMax=0;resizeLast=0;collapsible=1;marginBottom=0;" parent="1" vertex="1">
          <mxGeometry x="980" y="130" width="230" height="210" as="geometry" />
        </mxCell>
        <mxCell id="4iR9lyh61mGPYxzAgLXS-6" value="+ userNumber: String&#xa;+ course_list:LinearLayout&#xa;+ navigationView:NavigationView&#xa;- drawLayout:DrawLayout&#xa;+navigationView:NavigationView&#xa;&#xa;&#xa;" style="text;strokeColor=none;fillColor=none;align=left;verticalAlign=top;spacingLeft=4;spacingRight=4;overflow=hidden;rotatable=0;points=[[0,0.5],[1,0.5]];portConstraint=eastwest;" parent="4iR9lyh61mGPYxzAgLXS-5" vertex="1">
          <mxGeometry y="26" width="230" height="84" as="geometry" />
        </mxCell>
        <mxCell id="4iR9lyh61mGPYxzAgLXS-7" value="" style="line;strokeWidth=1;fillColor=none;align=left;verticalAlign=middle;spacingTop=-1;spacingLeft=3;spacingRight=3;rotatable=0;labelPosition=right;points=[];portConstraint=eastwest;" parent="4iR9lyh61mGPYxzAgLXS-5" vertex="1">
          <mxGeometry y="110" width="230" height="8" as="geometry" />
        </mxCell>
        <mxCell id="4iR9lyh61mGPYxzAgLXS-8" value="# onCreate(Bundle): void&#xa;+ out(Context):void&#xa;+ onBackPressed():void&#xa;+ onNavigationItemSelected(MenuItem):void&#xa;" style="text;strokeColor=none;fillColor=none;align=left;verticalAlign=top;spacingLeft=4;spacingRight=4;overflow=hidden;rotatable=0;points=[[0,0.5],[1,0.5]];portConstraint=eastwest;" parent="4iR9lyh61mGPYxzAgLXS-5" vertex="1">
          <mxGeometry y="118" width="230" height="92" as="geometry" />
        </mxCell>
        <mxCell id="4iR9lyh61mGPYxzAgLXS-9" value="ViewClass" style="swimlane;fontStyle=0;childLayout=stackLayout;horizontal=1;startSize=26;fillColor=none;horizontalStack=0;resizeParent=1;resizeParentMax=0;resizeLast=0;collapsible=1;marginBottom=0;whiteSpace=wrap;html=1;" parent="1" vertex="1">
          <mxGeometry x="340" y="1090" width="590" height="130" as="geometry" />
        </mxCell>
        <mxCell id="4iR9lyh61mGPYxzAgLXS-10" value="+ viewlayout(int, int, Context, ArrayList, String, ArrayList, Arraylist, LinearLayout): void " style="text;strokeColor=none;fillColor=none;align=left;verticalAlign=top;spacingLeft=4;spacingRight=4;overflow=hidden;rotatable=0;points=[[0,0.5],[1,0.5]];portConstraint=eastwest;whiteSpace=wrap;html=1;" parent="4iR9lyh61mGPYxzAgLXS-9" vertex="1">
          <mxGeometry y="26" width="590" height="26" as="geometry" />
        </mxCell>
        <mxCell id="4iR9lyh61mGPYxzAgLXS-11" value="+ get_information(Context, String, LinearLayout, JSONArray, ArrayList, ArrayList, ArrayList): void" style="text;strokeColor=none;fillColor=none;align=left;verticalAlign=top;spacingLeft=4;spacingRight=4;overflow=hidden;rotatable=0;points=[[0,0.5],[1,0.5]];portConstraint=eastwest;whiteSpace=wrap;html=1;" parent="4iR9lyh61mGPYxzAgLXS-9" vertex="1">
          <mxGeometry y="52" width="590" height="26" as="geometry" />
        </mxCell>
        <mxCell id="4iR9lyh61mGPYxzAgLXS-14" value="+ add_layout(int, int, Context, ArrayList, ArrayList, ArrayList, LinearLayout, String): void" style="text;strokeColor=none;fillColor=none;align=left;verticalAlign=top;spacingLeft=4;spacingRight=4;overflow=hidden;rotatable=0;points=[[0,0.5],[1,0.5]];portConstraint=eastwest;whiteSpace=wrap;html=1;" parent="4iR9lyh61mGPYxzAgLXS-9" vertex="1">
          <mxGeometry y="78" width="590" height="26" as="geometry" />
        </mxCell>
        <mxCell id="4iR9lyh61mGPYxzAgLXS-12" value="+ get_information_on_JSON(Context, String, LinearLayout, JSONArray, ArrayList, ArrayList, ArrayList): void" style="text;strokeColor=none;fillColor=none;align=left;verticalAlign=top;spacingLeft=4;spacingRight=4;overflow=hidden;rotatable=0;points=[[0,0.5],[1,0.5]];portConstraint=eastwest;whiteSpace=wrap;html=1;" parent="4iR9lyh61mGPYxzAgLXS-9" vertex="1">
          <mxGeometry y="104" width="590" height="26" as="geometry" />
        </mxCell>
        <mxCell id="4iR9lyh61mGPYxzAgLXS-15" value="profile" style="swimlane;fontStyle=1;align=center;verticalAlign=top;childLayout=stackLayout;horizontal=1;startSize=26;horizontalStack=0;resizeParent=1;resizeParentMax=0;resizeLast=0;collapsible=1;marginBottom=0;whiteSpace=wrap;html=1;" parent="1" vertex="1">
          <mxGeometry x="510" y="275" width="220" height="310" as="geometry" />
        </mxCell>
        <mxCell id="4iR9lyh61mGPYxzAgLXS-16" value="&lt;div&gt;+ name: TextView&lt;/div&gt;&lt;div&gt;+ surname:TextView&lt;/div&gt;&lt;div&gt;+ email:TextView&lt;/div&gt;&lt;div&gt;+ userNumber:TextView&lt;/div&gt;&lt;div&gt;+ user: String&lt;/div&gt;&lt;div&gt;+ userImage: ImageView&lt;/div&gt;&lt;div&gt;+ has: String&lt;/div&gt;&lt;div&gt;+ Image: Intent&lt;/div&gt;&lt;div&gt;+ bitmap: Bitmap&lt;/div&gt;&lt;div&gt;- drawLayout: DrawLayout&lt;/div&gt;&lt;div&gt;+ navigationView: NavigationView&lt;br&gt;&lt;/div&gt;&lt;div&gt;- GALLERY_REQ_CODE:int&lt;br&gt;&lt;/div&gt;" style="text;strokeColor=none;fillColor=none;align=left;verticalAlign=top;spacingLeft=4;spacingRight=4;overflow=hidden;rotatable=0;points=[[0,0.5],[1,0.5]];portConstraint=eastwest;whiteSpace=wrap;html=1;" parent="4iR9lyh61mGPYxzAgLXS-15" vertex="1">
          <mxGeometry y="26" width="220" height="184" as="geometry" />
        </mxCell>
        <mxCell id="4iR9lyh61mGPYxzAgLXS-17" value="" style="line;strokeWidth=1;fillColor=none;align=left;verticalAlign=middle;spacingTop=-1;spacingLeft=3;spacingRight=3;rotatable=0;labelPosition=right;points=[];portConstraint=eastwest;strokeColor=inherit;" parent="4iR9lyh61mGPYxzAgLXS-15" vertex="1">
          <mxGeometry y="210" width="220" height="8" as="geometry" />
        </mxCell>
        <mxCell id="4iR9lyh61mGPYxzAgLXS-18" value="&lt;div&gt;# onCreate(Bundle): void&lt;/div&gt;&lt;div&gt;# onActivityResult(int, int, Intent): void&lt;/div&gt;&lt;div&gt;+ back_to_login(View):void&lt;/div&gt;&lt;div&gt;- add_image(); void&lt;/div&gt;&lt;div&gt;+ onBackPressed():void&lt;br&gt;&lt;/div&gt;" style="text;strokeColor=none;fillColor=none;align=left;verticalAlign=top;spacingLeft=4;spacingRight=4;overflow=hidden;rotatable=0;points=[[0,0.5],[1,0.5]];portConstraint=eastwest;whiteSpace=wrap;html=1;" parent="4iR9lyh61mGPYxzAgLXS-15" vertex="1">
          <mxGeometry y="218" width="220" height="92" as="geometry" />
        </mxCell>
        <mxCell id="4iR9lyh61mGPYxzAgLXS-19" value="create_course" style="swimlane;fontStyle=1;align=center;verticalAlign=top;childLayout=stackLayout;horizontal=1;startSize=26;horizontalStack=0;resizeParent=1;resizeParentMax=0;resizeLast=0;collapsible=1;marginBottom=0;whiteSpace=wrap;html=1;" parent="1" vertex="1">
          <mxGeometry x="980" y="480" width="300" height="310" as="geometry" />
        </mxCell>
        <mxCell id="4iR9lyh61mGPYxzAgLXS-20" value="&lt;div&gt;+ name: EditText&lt;/div&gt;&lt;div&gt;+ code:EditText&lt;/div&gt;&lt;div&gt;+ school:EditTetxt&lt;/div&gt;&lt;div&gt;+ faculty:EditText&lt;/div&gt;&lt;div&gt;+ year:Integer&lt;/div&gt;&lt;div&gt;+ password:EditText&lt;/div&gt;&lt;div&gt;+ c_password:EditText&lt;/div&gt;&lt;div&gt;- drawLayout:DrawLayout&lt;/div&gt;&lt;div&gt;+ navigationView: NavigationView&lt;br&gt;&lt;/div&gt;" style="text;strokeColor=none;fillColor=none;align=left;verticalAlign=top;spacingLeft=4;spacingRight=4;overflow=hidden;rotatable=0;points=[[0,0.5],[1,0.5]];portConstraint=eastwest;whiteSpace=wrap;html=1;" parent="4iR9lyh61mGPYxzAgLXS-19" vertex="1">
          <mxGeometry y="26" width="300" height="144" as="geometry" />
        </mxCell>
        <mxCell id="4iR9lyh61mGPYxzAgLXS-21" value="" style="line;strokeWidth=1;fillColor=none;align=left;verticalAlign=middle;spacingTop=-1;spacingLeft=3;spacingRight=3;rotatable=0;labelPosition=right;points=[];portConstraint=eastwest;strokeColor=inherit;" parent="4iR9lyh61mGPYxzAgLXS-19" vertex="1">
          <mxGeometry y="170" width="300" height="8" as="geometry" />
        </mxCell>
        <mxCell id="4iR9lyh61mGPYxzAgLXS-22" value="&lt;div&gt;# onCreate(Bundle): void&lt;br&gt;&lt;/div&gt;&lt;div&gt;+ create(View): void&lt;/div&gt;&lt;div&gt;+ onItemSelected(AdapterView, View, int, long):void&lt;/div&gt;&lt;div&gt;+ onNothingSelected(AdapterView): void&lt;/div&gt;&lt;div&gt;+ filled_in(): void&lt;/div&gt;&lt;div&gt;+ adding_to_database(): void&lt;/div&gt;&lt;div&gt;+ onBackPressed(): void&lt;/div&gt;&lt;div&gt;+ onNavigationItemSelected(MenuItem): void&lt;br&gt;&lt;/div&gt;" style="text;strokeColor=none;fillColor=none;align=left;verticalAlign=top;spacingLeft=4;spacingRight=4;overflow=hidden;rotatable=0;points=[[0,0.5],[1,0.5]];portConstraint=eastwest;whiteSpace=wrap;html=1;" parent="4iR9lyh61mGPYxzAgLXS-19" vertex="1">
          <mxGeometry y="178" width="300" height="132" as="geometry" />
        </mxCell>
        <mxCell id="GG0X5sF1_zBIrp_4voiA-10" value="search_courses" style="swimlane;fontStyle=1;align=center;verticalAlign=top;childLayout=stackLayout;horizontal=1;startSize=26;horizontalStack=0;resizeParent=1;resizeParentMax=0;resizeLast=0;collapsible=1;marginBottom=0;whiteSpace=wrap;html=1;" vertex="1" parent="1">
          <mxGeometry x="-70" y="440" width="260" height="200" as="geometry" />
        </mxCell>
        <mxCell id="GG0X5sF1_zBIrp_4voiA-11" value="&lt;div&gt;+ userName: String&lt;/div&gt;&lt;div&gt;+ course_list: Linearlayout&lt;/div&gt;&lt;div&gt;- drawerLayout: DrawerLayout&lt;/div&gt;&lt;div&gt;+ courseName: String&lt;/div&gt;&lt;div&gt;+ logout: TextView&lt;/div&gt;&lt;div&gt;+ navigationView: NavigationView &lt;br&gt;&lt;/div&gt;" style="text;strokeColor=none;fillColor=none;align=left;verticalAlign=top;spacingLeft=4;spacingRight=4;overflow=hidden;rotatable=0;points=[[0,0.5],[1,0.5]];portConstraint=eastwest;whiteSpace=wrap;html=1;" vertex="1" parent="GG0X5sF1_zBIrp_4voiA-10">
          <mxGeometry y="26" width="260" height="94" as="geometry" />
        </mxCell>
        <mxCell id="GG0X5sF1_zBIrp_4voiA-12" value="" style="line;strokeWidth=1;fillColor=none;align=left;verticalAlign=middle;spacingTop=-1;spacingLeft=3;spacingRight=3;rotatable=0;labelPosition=right;points=[];portConstraint=eastwest;strokeColor=inherit;" vertex="1" parent="GG0X5sF1_zBIrp_4voiA-10">
          <mxGeometry y="120" width="260" height="8" as="geometry" />
        </mxCell>
        <mxCell id="GG0X5sF1_zBIrp_4voiA-13" value="&lt;div&gt;# onCreate(Bundle): void&lt;/div&gt;&lt;div&gt;+ enter_password(Context, String, String): void&lt;/div&gt;&lt;div&gt;+ onBackPressed(): void&lt;/div&gt;&lt;div&gt;+ onNavigationItemSelected(MenuItem): void&lt;/div&gt;" style="text;strokeColor=none;fillColor=none;align=left;verticalAlign=top;spacingLeft=4;spacingRight=4;overflow=hidden;rotatable=0;points=[[0,0.5],[1,0.5]];portConstraint=eastwest;whiteSpace=wrap;html=1;" vertex="1" parent="GG0X5sF1_zBIrp_4voiA-10">
          <mxGeometry y="128" width="260" height="72" as="geometry" />
        </mxCell>
        <mxCell id="GG0X5sF1_zBIrp_4voiA-14" value="student_course_view" style="swimlane;fontStyle=1;align=center;verticalAlign=top;childLayout=stackLayout;horizontal=1;startSize=26;horizontalStack=0;resizeParent=1;resizeParentMax=0;resizeLast=0;collapsible=1;marginBottom=0;whiteSpace=wrap;html=1;" vertex="1" parent="1">
          <mxGeometry x="-320" y="170" width="250" height="180" as="geometry" />
        </mxCell>
        <mxCell id="GG0X5sF1_zBIrp_4voiA-15" value="&lt;div&gt;+ userName: String&lt;/div&gt;&lt;div&gt;+ course_list: Linearlayout&lt;/div&gt;&lt;div&gt;- drawerLayout: DrawerLayout&lt;/div&gt;&lt;div&gt;+ courseName: String&lt;/div&gt;&lt;div&gt;+ logout: TextView&lt;/div&gt;&lt;div&gt;&amp;nbsp;+ navigationView: NavigationView &lt;br&gt;&lt;/div&gt;" style="text;strokeColor=none;fillColor=none;align=left;verticalAlign=top;spacingLeft=4;spacingRight=4;overflow=hidden;rotatable=0;points=[[0,0.5],[1,0.5]];portConstraint=eastwest;whiteSpace=wrap;html=1;" vertex="1" parent="GG0X5sF1_zBIrp_4voiA-14">
          <mxGeometry y="26" width="250" height="94" as="geometry" />
        </mxCell>
        <mxCell id="GG0X5sF1_zBIrp_4voiA-16" value="" style="line;strokeWidth=1;fillColor=none;align=left;verticalAlign=middle;spacingTop=-1;spacingLeft=3;spacingRight=3;rotatable=0;labelPosition=right;points=[];portConstraint=eastwest;strokeColor=inherit;" vertex="1" parent="GG0X5sF1_zBIrp_4voiA-14">
          <mxGeometry y="120" width="250" height="8" as="geometry" />
        </mxCell>
        <mxCell id="GG0X5sF1_zBIrp_4voiA-17" value="&lt;div&gt;# onCreate(Bundle): void&lt;/div&gt;&lt;div&gt;+ onBackPressed(): void&lt;/div&gt;&lt;div&gt;+ onNavigationItemSelected(MenuItem): void&lt;/div&gt;" style="text;strokeColor=none;fillColor=none;align=left;verticalAlign=top;spacingLeft=4;spacingRight=4;overflow=hidden;rotatable=0;points=[[0,0.5],[1,0.5]];portConstraint=eastwest;whiteSpace=wrap;html=1;" vertex="1" parent="GG0X5sF1_zBIrp_4voiA-14">
          <mxGeometry y="128" width="250" height="52" as="geometry" />
        </mxCell>
        <mxCell id="GG0X5sF1_zBIrp_4voiA-19" value="teacher_course_view" style="swimlane;fontStyle=1;align=center;verticalAlign=top;childLayout=stackLayout;horizontal=1;startSize=26;horizontalStack=0;resizeParent=1;resizeParentMax=0;resizeLast=0;collapsible=1;marginBottom=0;whiteSpace=wrap;html=1;" vertex="1" parent="1">
          <mxGeometry x="1350" y="400" width="250" height="180" as="geometry" />
        </mxCell>
        <mxCell id="GG0X5sF1_zBIrp_4voiA-20" value="&lt;div&gt;+ userName: String&lt;/div&gt;&lt;div&gt;+ course_list: Linearlayout&lt;/div&gt;&lt;div&gt;- drawerLayout: DrawerLayout&lt;/div&gt;&lt;div&gt;+ courseName: String&lt;/div&gt;&lt;div&gt;+ logout: TextView&lt;/div&gt;&lt;div&gt;+ navigationView: NavigationView &lt;br&gt;&lt;/div&gt;" style="text;strokeColor=none;fillColor=none;align=left;verticalAlign=top;spacingLeft=4;spacingRight=4;overflow=hidden;rotatable=0;points=[[0,0.5],[1,0.5]];portConstraint=eastwest;whiteSpace=wrap;html=1;" vertex="1" parent="GG0X5sF1_zBIrp_4voiA-19">
          <mxGeometry y="26" width="250" height="94" as="geometry" />
        </mxCell>
        <mxCell id="GG0X5sF1_zBIrp_4voiA-21" value="" style="line;strokeWidth=1;fillColor=none;align=left;verticalAlign=middle;spacingTop=-1;spacingLeft=3;spacingRight=3;rotatable=0;labelPosition=right;points=[];portConstraint=eastwest;strokeColor=inherit;" vertex="1" parent="GG0X5sF1_zBIrp_4voiA-19">
          <mxGeometry y="120" width="250" height="8" as="geometry" />
        </mxCell>
        <mxCell id="GG0X5sF1_zBIrp_4voiA-22" value="&lt;div&gt;# onCreate(Bundle): void&lt;/div&gt;&lt;div&gt;+ onBackPressed(): void&lt;/div&gt;&lt;div&gt;+ onNavigationItemSelected(MenuItem): void&lt;/div&gt;" style="text;strokeColor=none;fillColor=none;align=left;verticalAlign=top;spacingLeft=4;spacingRight=4;overflow=hidden;rotatable=0;points=[[0,0.5],[1,0.5]];portConstraint=eastwest;whiteSpace=wrap;html=1;" vertex="1" parent="GG0X5sF1_zBIrp_4voiA-19">
          <mxGeometry y="128" width="250" height="52" as="geometry" />
        </mxCell>
        <mxCell id="GG0X5sF1_zBIrp_4voiA-27" value="" style="endArrow=block;startArrow=block;endFill=1;startFill=1;html=1;rounded=0;exitX=1;exitY=0.5;exitDx=0;exitDy=0;entryX=0;entryY=0.5;entryDx=0;entryDy=0;" edge="1" parent="1" source="AQYm5tewG9qpZWJNlzCx-8" target="4iR9lyh61mGPYxzAgLXS-6">
          <mxGeometry width="160" relative="1" as="geometry">
            <mxPoint x="770" y="138" as="sourcePoint" />
            <mxPoint x="910" y="168" as="targetPoint" />
            <Array as="points">
              <mxPoint x="840" y="118" />
              <mxPoint x="840" y="198" />
            </Array>
          </mxGeometry>
        </mxCell>
        <mxCell id="GG0X5sF1_zBIrp_4voiA-28" value="" style="endArrow=block;startArrow=block;endFill=1;startFill=1;html=1;rounded=0;exitX=0.75;exitY=0;exitDx=0;exitDy=0;entryX=0;entryY=0.5;entryDx=0;entryDy=0;" edge="1" parent="1" source="AQYm5tewG9qpZWJNlzCx-7" target="AQYm5tewG9qpZWJNlzCx-28">
          <mxGeometry width="160" relative="1" as="geometry">
            <mxPoint x="780" y="148" as="sourcePoint" />
            <mxPoint x="920" y="178" as="targetPoint" />
            <Array as="points">
              <mxPoint x="700" y="-110" />
            </Array>
          </mxGeometry>
        </mxCell>
        <mxCell id="GG0X5sF1_zBIrp_4voiA-29" value="" style="endArrow=block;startArrow=block;endFill=1;startFill=1;html=1;rounded=0;exitX=0.25;exitY=0;exitDx=0;exitDy=0;entryX=1.003;entryY=0.574;entryDx=0;entryDy=0;entryPerimeter=0;" edge="1" parent="1" source="AQYm5tewG9qpZWJNlzCx-7" target="AQYm5tewG9qpZWJNlzCx-12">
          <mxGeometry width="160" relative="1" as="geometry">
            <mxPoint x="790" y="158" as="sourcePoint" />
            <mxPoint x="930" y="188" as="targetPoint" />
            <Array as="points">
              <mxPoint x="600" y="-230" />
            </Array>
          </mxGeometry>
        </mxCell>
        <mxCell id="GG0X5sF1_zBIrp_4voiA-30" value="" style="endArrow=block;startArrow=block;endFill=1;startFill=1;html=1;rounded=0;exitX=1;exitY=0.5;exitDx=0;exitDy=0;entryX=0;entryY=0.5;entryDx=0;entryDy=0;" edge="1" parent="1" source="AQYm5tewG9qpZWJNlzCx-20" target="AQYm5tewG9qpZWJNlzCx-8">
          <mxGeometry width="160" relative="1" as="geometry">
            <mxPoint x="800" y="168" as="sourcePoint" />
            <mxPoint x="940" y="198" as="targetPoint" />
            <Array as="points">
              <mxPoint x="420" y="210" />
              <mxPoint x="420" y="120" />
            </Array>
          </mxGeometry>
        </mxCell>
        <mxCell id="GG0X5sF1_zBIrp_4voiA-32" value="" style="endArrow=block;startArrow=block;endFill=1;startFill=1;html=1;rounded=0;exitX=0.591;exitY=0.989;exitDx=0;exitDy=0;exitPerimeter=0;" edge="1" parent="1" source="4iR9lyh61mGPYxzAgLXS-8">
          <mxGeometry width="160" relative="1" as="geometry">
            <mxPoint x="820" y="188" as="sourcePoint" />
            <mxPoint x="1116" y="480" as="targetPoint" />
            <Array as="points">
              <mxPoint x="1116" y="450" />
            </Array>
          </mxGeometry>
        </mxCell>
        <mxCell id="GG0X5sF1_zBIrp_4voiA-33" value="" style="endArrow=block;startArrow=block;endFill=1;startFill=1;html=1;rounded=0;exitX=1;exitY=0.5;exitDx=0;exitDy=0;entryX=0;entryY=0.5;entryDx=0;entryDy=0;" edge="1" parent="1" source="4iR9lyh61mGPYxzAgLXS-16" target="4iR9lyh61mGPYxzAgLXS-8">
          <mxGeometry width="160" relative="1" as="geometry">
            <mxPoint x="830" y="198" as="sourcePoint" />
            <mxPoint x="970" y="228" as="targetPoint" />
            <Array as="points">
              <mxPoint x="850" y="393" />
              <mxPoint x="850" y="294" />
            </Array>
          </mxGeometry>
        </mxCell>
        <mxCell id="GG0X5sF1_zBIrp_4voiA-34" value="" style="endArrow=block;startArrow=block;endFill=1;startFill=1;html=1;rounded=0;exitX=1;exitY=0.5;exitDx=0;exitDy=0;entryX=-0.003;entryY=0.451;entryDx=0;entryDy=0;entryPerimeter=0;" edge="1" parent="1" source="4iR9lyh61mGPYxzAgLXS-18" target="4iR9lyh61mGPYxzAgLXS-20">
          <mxGeometry width="160" relative="1" as="geometry">
            <mxPoint x="740" y="403" as="sourcePoint" />
            <mxPoint x="990" y="304" as="targetPoint" />
            <Array as="points">
              <mxPoint x="820" y="540" />
              <mxPoint x="820" y="570" />
            </Array>
          </mxGeometry>
        </mxCell>
        <mxCell id="GG0X5sF1_zBIrp_4voiA-35" value="" style="endArrow=block;startArrow=block;endFill=1;startFill=1;html=1;rounded=0;exitX=1;exitY=0.75;exitDx=0;exitDy=0;entryX=0;entryY=0.5;entryDx=0;entryDy=0;" edge="1" parent="1" source="AQYm5tewG9qpZWJNlzCx-19" target="4iR9lyh61mGPYxzAgLXS-16">
          <mxGeometry width="160" relative="1" as="geometry">
            <mxPoint x="330" y="220" as="sourcePoint" />
            <mxPoint x="560" y="128" as="targetPoint" />
            <Array as="points">
              <mxPoint x="420" y="310" />
              <mxPoint x="420" y="393" />
            </Array>
          </mxGeometry>
        </mxCell>
        <mxCell id="GG0X5sF1_zBIrp_4voiA-36" value="" style="endArrow=block;startArrow=block;endFill=1;startFill=1;html=1;rounded=0;exitX=0.396;exitY=1;exitDx=0;exitDy=0;entryX=0.75;entryY=0;entryDx=0;entryDy=0;exitPerimeter=0;" edge="1" parent="1" source="AQYm5tewG9qpZWJNlzCx-22" target="GG0X5sF1_zBIrp_4voiA-10">
          <mxGeometry width="160" relative="1" as="geometry">
            <mxPoint x="340" y="230" as="sourcePoint" />
            <mxPoint x="570" y="138" as="targetPoint" />
            <Array as="points">
              <mxPoint x="180" y="410" />
              <mxPoint x="125" y="410" />
            </Array>
          </mxGeometry>
        </mxCell>
        <mxCell id="GG0X5sF1_zBIrp_4voiA-37" value="" style="endArrow=block;startArrow=block;endFill=1;startFill=1;html=1;rounded=0;exitX=1;exitY=0.5;exitDx=0;exitDy=0;entryX=0;entryY=0.5;entryDx=0;entryDy=0;" edge="1" parent="1" source="GG0X5sF1_zBIrp_4voiA-11" target="4iR9lyh61mGPYxzAgLXS-18">
          <mxGeometry width="160" relative="1" as="geometry">
            <mxPoint x="350" y="240" as="sourcePoint" />
            <mxPoint x="580" y="148" as="targetPoint" />
            <Array as="points">
              <mxPoint x="350" y="513" />
              <mxPoint x="350" y="540" />
            </Array>
          </mxGeometry>
        </mxCell>
        <mxCell id="GG0X5sF1_zBIrp_4voiA-38" value="" style="endArrow=block;startArrow=block;endFill=1;startFill=1;html=1;rounded=0;exitX=1;exitY=0.5;exitDx=0;exitDy=0;entryX=0.25;entryY=0;entryDx=0;entryDy=0;" edge="1" parent="1" source="4iR9lyh61mGPYxzAgLXS-8" target="GG0X5sF1_zBIrp_4voiA-19">
          <mxGeometry width="160" relative="1" as="geometry">
            <mxPoint x="1126" y="349" as="sourcePoint" />
            <mxPoint x="1126" y="490" as="targetPoint" />
            <Array as="points">
              <mxPoint x="1413" y="294" />
            </Array>
          </mxGeometry>
        </mxCell>
        <mxCell id="GG0X5sF1_zBIrp_4voiA-39" value="" style="endArrow=block;startArrow=block;endFill=1;startFill=1;html=1;rounded=0;exitX=0.5;exitY=1;exitDx=0;exitDy=0;entryX=1;entryY=0.5;entryDx=0;entryDy=0;" edge="1" parent="1" source="GG0X5sF1_zBIrp_4voiA-19" target="4iR9lyh61mGPYxzAgLXS-20">
          <mxGeometry width="160" relative="1" as="geometry">
            <mxPoint x="1136" y="359" as="sourcePoint" />
            <mxPoint x="1136" y="500" as="targetPoint" />
            <Array as="points">
              <mxPoint x="1475" y="640" />
              <mxPoint x="1320" y="640" />
              <mxPoint x="1320" y="578" />
            </Array>
          </mxGeometry>
        </mxCell>
        <mxCell id="GG0X5sF1_zBIrp_4voiA-40" value="" style="endArrow=block;startArrow=block;endFill=1;startFill=1;html=1;rounded=0;exitX=0;exitY=0.5;exitDx=0;exitDy=0;" edge="1" parent="1" source="AQYm5tewG9qpZWJNlzCx-22" target="GG0X5sF1_zBIrp_4voiA-17">
          <mxGeometry width="160" relative="1" as="geometry">
            <mxPoint x="191" y="382" as="sourcePoint" />
            <mxPoint x="-70" y="326" as="targetPoint" />
            <Array as="points" />
          </mxGeometry>
        </mxCell>
        <mxCell id="GG0X5sF1_zBIrp_4voiA-41" value="" style="endArrow=block;startArrow=block;endFill=1;startFill=1;html=1;rounded=0;exitX=0;exitY=0.5;exitDx=0;exitDy=0;entryX=0.512;entryY=0.962;entryDx=0;entryDy=0;entryPerimeter=0;" edge="1" parent="1" source="GG0X5sF1_zBIrp_4voiA-11" target="GG0X5sF1_zBIrp_4voiA-17">
          <mxGeometry width="160" relative="1" as="geometry">
            <mxPoint x="100" y="336" as="sourcePoint" />
            <mxPoint x="-60" y="335" as="targetPoint" />
            <Array as="points">
              <mxPoint x="-192" y="513" />
            </Array>
          </mxGeometry>
        </mxCell>
        <mxCell id="GG0X5sF1_zBIrp_4voiA-42" value="" style="endArrow=block;startArrow=block;endFill=1;startFill=1;html=1;rounded=0;exitX=-0.009;exitY=0.875;exitDx=0;exitDy=0;entryX=0.868;entryY=1.019;entryDx=0;entryDy=0;entryPerimeter=0;exitPerimeter=0;" edge="1" parent="1" source="4iR9lyh61mGPYxzAgLXS-16" target="GG0X5sF1_zBIrp_4voiA-17">
          <mxGeometry width="160" relative="1" as="geometry">
            <mxPoint x="-60" y="523" as="sourcePoint" />
            <mxPoint x="-182" y="358" as="targetPoint" />
            <Array as="points">
              <mxPoint x="380" y="462" />
              <mxPoint x="380" y="400" />
              <mxPoint x="-103" y="400" />
            </Array>
          </mxGeometry>
        </mxCell>
        <mxCell id="GG0X5sF1_zBIrp_4voiA-43" value="" style="endArrow=block;startArrow=block;endFill=1;startFill=1;html=1;rounded=0;exitX=0.995;exitY=0.766;exitDx=0;exitDy=0;exitPerimeter=0;entryX=0;entryY=0.17;entryDx=0;entryDy=0;entryPerimeter=0;" edge="1" parent="1" source="4iR9lyh61mGPYxzAgLXS-16" target="GG0X5sF1_zBIrp_4voiA-20">
          <mxGeometry width="160" relative="1" as="geometry">
            <mxPoint x="1220" y="304" as="sourcePoint" />
            <mxPoint x="1350" y="442" as="targetPoint" />
            <Array as="points" />
          </mxGeometry>
        </mxCell>
        <mxCell id="GG0X5sF1_zBIrp_4voiA-45" value="" style="endArrow=diamondThin;endFill=0;endSize=24;html=1;rounded=0;entryX=0.517;entryY=-0.031;entryDx=0;entryDy=0;entryPerimeter=0;exitX=0.592;exitY=1.077;exitDx=0;exitDy=0;exitPerimeter=0;" edge="1" parent="1" source="GG0X5sF1_zBIrp_4voiA-8" target="4iR9lyh61mGPYxzAgLXS-9">
          <mxGeometry width="160" relative="1" as="geometry">
            <mxPoint x="630" y="1080" as="sourcePoint" />
            <mxPoint x="1050" y="1120" as="targetPoint" />
          </mxGeometry>
        </mxCell>
        <mxCell id="GG0X5sF1_zBIrp_4voiA-46" value="" style="endArrow=diamondThin;endFill=0;endSize=24;html=1;rounded=0;entryX=1;entryY=0.5;entryDx=0;entryDy=0;exitX=0.003;exitY=0.553;exitDx=0;exitDy=0;exitPerimeter=0;" edge="1" parent="1" source="4iR9lyh61mGPYxzAgLXS-22" target="GG0X5sF1_zBIrp_4voiA-1">
          <mxGeometry width="160" relative="1" as="geometry">
            <mxPoint x="960" y="760" as="sourcePoint" />
            <mxPoint x="890" y="760" as="targetPoint" />
          </mxGeometry>
        </mxCell>
        <mxCell id="GG0X5sF1_zBIrp_4voiA-48" value="" style="endArrow=diamondThin;endFill=0;endSize=24;html=1;rounded=0;entryX=1;entryY=0.5;entryDx=0;entryDy=0;exitX=0.224;exitY=1.096;exitDx=0;exitDy=0;exitPerimeter=0;" edge="1" parent="1" source="GG0X5sF1_zBIrp_4voiA-22" target="GG0X5sF1_zBIrp_4voiA-2">
          <mxGeometry width="160" relative="1" as="geometry">
            <mxPoint x="665" y="971" as="sourcePoint" />
            <mxPoint x="665" y="1106" as="targetPoint" />
            <Array as="points">
              <mxPoint x="1406" y="884" />
            </Array>
          </mxGeometry>
        </mxCell>
        <mxCell id="GG0X5sF1_zBIrp_4voiA-52" value="" style="endArrow=diamondThin;endFill=0;endSize=24;html=1;rounded=0;entryX=1;entryY=0.5;entryDx=0;entryDy=0;exitX=-0.009;exitY=0.065;exitDx=0;exitDy=0;exitPerimeter=0;" edge="1" parent="1" source="4iR9lyh61mGPYxzAgLXS-8" target="GG0X5sF1_zBIrp_4voiA-6">
          <mxGeometry width="160" relative="1" as="geometry">
            <mxPoint x="705" y="1011" as="sourcePoint" />
            <mxPoint x="705" y="1146" as="targetPoint" />
            <Array as="points">
              <mxPoint x="870" y="254" />
              <mxPoint x="870" y="830" />
            </Array>
          </mxGeometry>
        </mxCell>
        <mxCell id="GG0X5sF1_zBIrp_4voiA-53" value="" style="endArrow=diamondThin;endFill=0;endSize=24;html=1;rounded=0;entryX=1;entryY=0.5;entryDx=0;entryDy=0;exitX=0.072;exitY=1.016;exitDx=0;exitDy=0;exitPerimeter=0;" edge="1" parent="1" source="AQYm5tewG9qpZWJNlzCx-30" target="AQYm5tewG9qpZWJNlzCx-23">
          <mxGeometry width="160" relative="1" as="geometry">
            <mxPoint x="715" y="1021" as="sourcePoint" />
            <mxPoint x="715" y="1156" as="targetPoint" />
            <Array as="points">
              <mxPoint x="941" y="780" />
            </Array>
          </mxGeometry>
        </mxCell>
        <mxCell id="GG0X5sF1_zBIrp_4voiA-54" value="" style="endArrow=diamondThin;endFill=0;endSize=24;html=1;rounded=0;entryX=0.926;entryY=-0.006;entryDx=0;entryDy=0;entryPerimeter=0;exitX=0.995;exitY=0.61;exitDx=0;exitDy=0;exitPerimeter=0;" edge="1" parent="1" source="AQYm5tewG9qpZWJNlzCx-10" target="AQYm5tewG9qpZWJNlzCx-23">
          <mxGeometry width="160" relative="1" as="geometry">
            <mxPoint x="790" y="160" as="sourcePoint" />
            <mxPoint x="725" y="1166" as="targetPoint" />
            <Array as="points">
              <mxPoint x="775" y="198" />
            </Array>
          </mxGeometry>
        </mxCell>
        <mxCell id="GG0X5sF1_zBIrp_4voiA-55" value="" style="endArrow=diamondThin;endFill=0;endSize=24;html=1;rounded=0;entryX=0.103;entryY=-0.003;entryDx=0;entryDy=0;entryPerimeter=0;exitX=-0.009;exitY=0.033;exitDx=0;exitDy=0;exitPerimeter=0;" edge="1" parent="1" source="4iR9lyh61mGPYxzAgLXS-18" target="AQYm5tewG9qpZWJNlzCx-23">
          <mxGeometry width="160" relative="1" as="geometry">
            <mxPoint x="735" y="1041" as="sourcePoint" />
            <mxPoint x="735" y="1176" as="targetPoint" />
            <Array as="points">
              <mxPoint x="454" y="496" />
            </Array>
          </mxGeometry>
        </mxCell>
        <mxCell id="GG0X5sF1_zBIrp_4voiA-56" value="" style="endArrow=diamondThin;endFill=0;endSize=24;html=1;rounded=0;entryX=-0.01;entryY=0.923;entryDx=0;entryDy=0;entryPerimeter=0;exitX=1.004;exitY=0.718;exitDx=0;exitDy=0;exitPerimeter=0;" edge="1" parent="1" source="AQYm5tewG9qpZWJNlzCx-20" target="AQYm5tewG9qpZWJNlzCx-24">
          <mxGeometry width="160" relative="1" as="geometry">
            <mxPoint x="518" y="506" as="sourcePoint" />
            <mxPoint x="464" y="620" as="targetPoint" />
            <Array as="points">
              <mxPoint x="360" y="237" />
              <mxPoint x="360" y="687" />
            </Array>
          </mxGeometry>
        </mxCell>
        <mxCell id="GG0X5sF1_zBIrp_4voiA-57" value="" style="endArrow=diamondThin;endFill=0;endSize=24;html=1;rounded=0;entryX=0.036;entryY=0;entryDx=0;entryDy=0;entryPerimeter=0;exitX=0.893;exitY=1.036;exitDx=0;exitDy=0;exitPerimeter=0;" edge="1" parent="1" source="AQYm5tewG9qpZWJNlzCx-14" target="AQYm5tewG9qpZWJNlzCx-23">
          <mxGeometry width="160" relative="1" as="geometry">
            <mxPoint x="528" y="516" as="sourcePoint" />
            <mxPoint x="474" y="630" as="targetPoint" />
            <Array as="points" />
          </mxGeometry>
        </mxCell>
        <mxCell id="GG0X5sF1_zBIrp_4voiA-58" value="" style="endArrow=diamondThin;endFill=0;endSize=24;html=1;rounded=0;entryX=0;entryY=0.5;entryDx=0;entryDy=0;exitX=0.615;exitY=1.028;exitDx=0;exitDy=0;exitPerimeter=0;" edge="1" parent="1" source="GG0X5sF1_zBIrp_4voiA-13" target="GG0X5sF1_zBIrp_4voiA-3">
          <mxGeometry width="160" relative="1" as="geometry">
            <mxPoint x="538" y="526" as="sourcePoint" />
            <mxPoint x="484" y="640" as="targetPoint" />
            <Array as="points">
              <mxPoint x="90" y="754" />
            </Array>
          </mxGeometry>
        </mxCell>
        <mxCell id="GG0X5sF1_zBIrp_4voiA-59" value="" style="endArrow=diamondThin;endFill=0;endSize=24;html=1;rounded=0;entryX=0;entryY=0.5;entryDx=0;entryDy=0;exitX=0.708;exitY=1.096;exitDx=0;exitDy=0;exitPerimeter=0;" edge="1" parent="1" source="GG0X5sF1_zBIrp_4voiA-17" target="GG0X5sF1_zBIrp_4voiA-6">
          <mxGeometry width="160" relative="1" as="geometry">
            <mxPoint x="100" y="652" as="sourcePoint" />
            <mxPoint x="424" y="764" as="targetPoint" />
            <Array as="points">
              <mxPoint x="-140" y="830" />
            </Array>
          </mxGeometry>
        </mxCell>
      </root>
    </mxGraphModel>
  </diagram>
</mxfile>
